<svg xmlns="http://www.w3.org/2000/svg" xmlns:xlink="http://www.w3.org/1999/xlink" viewBox="50 120 280 130" width="100" height="100" preserveAspectRatio="xMidYMid meet" version="1.0"><defs><g/><clipPath id="fbbc2bf14f"><path d="M 57.070312 129.59375 L 151 129.59375 L 151 236 L 57.070312 236 Z M 57.070312 129.59375 " clip-rule="nonzero"/></clipPath><clipPath id="bd9ef74733"><rect x="0" width="170" y="0" height="71"/></clipPath></defs><g clip-path="url(#fbbc2bf14f)"><path fill="#0b1958" d="M 90.605469 187.71875 C 76.769531 183.199219 62.945312 195.695312 66.507812 210.113281 C 71.101562 227.882812 90.164062 236.230469 108.925781 235.582031 L 108.925781 222.753906 C 77.5625 223.003906 66.898438 189.585938 90.605469 187.71875 M 95.804688 197.097656 C 94.132812 197.097656 92.777344 198.457031 92.777344 200.128906 C 92.777344 201.800781 94.132812 203.15625 95.804688 203.15625 C 97.480469 203.15625 98.835938 201.800781 98.835938 200.128906 C 98.835938 198.457031 97.480469 197.097656 95.804688 197.097656 Z M 106.539062 197.097656 C 104.863281 197.097656 103.507812 198.457031 103.507812 200.128906 C 103.507812 201.800781 104.863281 203.15625 106.539062 203.15625 C 108.210938 203.15625 109.566406 201.800781 109.566406 200.128906 C 109.566406 198.457031 108.210938 197.097656 106.539062 197.097656 Z M 117.269531 197.097656 C 115.597656 197.097656 114.242188 198.457031 114.242188 200.128906 C 114.242188 201.800781 115.597656 203.15625 117.269531 203.15625 C 118.945312 203.15625 120.300781 201.800781 120.300781 200.128906 C 120.300781 198.457031 118.945312 197.097656 117.269531 197.097656 Z M 98.324219 160.398438 C 83.8125 156.144531 64.421875 147.125 59.191406 131.710938 C 57.5625 136.855469 57.074219 142.109375 57.597656 147.191406 C 57.980469 150.925781 58.617188 154.179688 59.46875 157.023438 C 62.039062 163.703125 66.59375 169.644531 72.824219 173.90625 C 72.195312 170.304688 72.652344 166.597656 74.132812 163.257812 C 82.605469 174.226562 111.257812 177.710938 124.609375 186.664062 C 130.058594 190.320312 133.394531 196.480469 133.394531 203.140625 C 133.394531 215.199219 116.972656 226.980469 109.226562 235.574219 C 126.644531 234.882812 143.734375 226.433594 148.6875 210.5625 C 162.410156 166.558594 94.703125 161.332031 71.832031 129.640625 C 72.855469 145.585938 84.34375 154.5 98.324219 160.398438 Z M 98.324219 160.398438 " fill-opacity="1" fill-rule="evenodd"/></g><g transform="matrix(1, 0, 0, 1, 157, 165)"><g clip-path="url(#bd9ef74733)"><g fill="#0b1958" fill-opacity="1"><g transform="translate(0.488832, 51.114851)"><g><path d="M 4.078125 0 L 4.078125 -33.953125 L 10.625 -33.953125 L 22.703125 -16.34375 L 34.71875 -33.953125 L 41.21875 -33.953125 L 41.21875 0 L 33.5625 0 L 33.5625 -20.421875 L 25.3125 -8.390625 L 19.984375 -8.390625 L 11.734375 -20.46875 L 11.734375 0 Z M 4.078125 0 "/></g></g></g><g fill="#0b1958" fill-opacity="1"><g transform="translate(45.785515, 51.114851)"><g><path d="M 3.6875 0 L 3.6875 -25.46875 L 9.171875 -25.46875 L 10.140625 -22.0625 C 10.972656 -23.257812 12.003906 -24.125 13.234375 -24.65625 C 14.460938 -25.195312 16.015625 -25.46875 17.890625 -25.46875 L 20.65625 -25.46875 L 20.65625 -18.765625 L 17.84375 -18.765625 C 15.75 -18.765625 14.09375 -18.195312 12.875 -17.0625 C 11.664062 -15.9375 11.0625 -14 11.0625 -11.25 L 11.0625 0 Z M 3.6875 0 "/></g></g></g><g fill="#0b1958" fill-opacity="1"><g transform="translate(68.09438, 51.114851)"><g><path d="M 4.078125 0 L 4.078125 -33.953125 L 11.78125 -33.953125 L 11.78125 -7.21875 L 26.625 -7.21875 L 26.625 0 Z M 4.078125 0 "/></g></g></g><g fill="#0b1958" fill-opacity="1"><g transform="translate(96.028953, 51.114851)"><g><path d="M 0.4375 0 L 13.921875 -33.953125 L 21.484375 -33.953125 L 34.96875 0 L 26.71875 0 L 24.4375 -5.875 L 10.96875 -5.875 L 8.6875 0 Z M 12.953125 -11.9375 L 22.5 -11.9375 L 17.703125 -24.34375 Z M 12.953125 -11.9375 "/></g></g></g><g fill="#0b1958" fill-opacity="1"><g transform="translate(131.432149, 51.114851)"><g><path d="M 4.078125 0 L 4.078125 -33.953125 L 17.515625 -33.953125 C 21.097656 -33.953125 24.226562 -33.238281 26.90625 -31.8125 C 29.59375 -30.394531 31.679688 -28.40625 33.171875 -25.84375 C 34.660156 -23.289062 35.40625 -20.332031 35.40625 -16.96875 C 35.40625 -13.570312 34.660156 -10.601562 33.171875 -8.0625 C 31.679688 -5.53125 29.59375 -3.550781 26.90625 -2.125 C 24.226562 -0.707031 21.097656 0 17.515625 0 Z M 11.78125 -7.078125 L 17.359375 -7.078125 C 19.367188 -7.078125 21.128906 -7.488281 22.640625 -8.3125 C 24.160156 -9.132812 25.347656 -10.289062 26.203125 -11.78125 C 27.066406 -13.269531 27.5 -15 27.5 -16.96875 C 27.5 -18.976562 27.066406 -20.71875 26.203125 -22.1875 C 25.347656 -23.65625 24.15625 -24.800781 22.625 -25.625 C 21.09375 -26.457031 19.304688 -26.875 17.265625 -26.875 L 11.78125 -26.875 Z M 11.78125 -7.078125 "/></g></g></g></g></g></svg>